<?xml version="1.0" encoding="UTF-8" standalone="no"?>
<svg
   xmlns:dc="http://purl.org/dc/elements/1.1/"
   xmlns:cc="http://creativecommons.org/ns#"
   xmlns:rdf="http://www.w3.org/1999/02/22-rdf-syntax-ns#"
   xmlns:svg="http://www.w3.org/2000/svg"
   xmlns="http://www.w3.org/2000/svg"
   xmlns:xlink="http://www.w3.org/1999/xlink"
   viewBox="0 0 700.00001 649.99998"
   height="650"
   width="700"
   xml:space="preserve"
   version="1.1"
   id="svg2"><metadata
     id="metadata8"><rdf:RDF><cc:Work
         rdf:about=""><dc:format>image/svg+xml</dc:format><dc:type
           rdf:resource="http://purl.org/dc/dcmitype/StillImage" /><dc:title></dc:title></cc:Work></rdf:RDF></metadata><defs
     id="defs6"><clipPath
       id="clipPath18"
       clipPathUnits="userSpaceOnUse"><path
         id="path20"
         d="m 0,869.743 846.084,0 L 846.084,0 0,0 0,869.743 Z" /></clipPath><clipPath
       id="clipPath26"
       clipPathUnits="userSpaceOnUse"><path
         id="path28"
         d="m 6.24561,480.284 500.39239,0 0,-447.2674 -500.39239,0 0,447.2674 z" /></clipPath><clipPath
       id="clipPath30"
       clipPathUnits="userSpaceOnUse"><path
         id="path32"
         d="M 190.06,480.284 6.246,296.47 286.598,33.017 506.638,253.057 190.06,480.284 Z" /></clipPath><linearGradient
       id="linearGradient34"
       spreadMethod="pad"
       gradientTransform="matrix(184.23512,184.23512,184.23512,-184.23512,162.09717,180.41797)"
       gradientUnits="userSpaceOnUse"
       y2="0"
       x2="1"
       y1="0"
       x1="0"><stop
         id="stop36"
         offset="0"
         style="stop-opacity:1;stop-color:#ffffff" /><stop
         id="stop38"
         offset="1"
         style="stop-opacity:1;stop-color:#000000" /></linearGradient><clipPath
       id="clipPath78"
       clipPathUnits="userSpaceOnUse"><path
         id="path80"
         d="m 95.6772,523.905 409.8738,0 0,-443.9519 -409.8738,0 0,443.9519 z" /></clipPath><clipPath
       id="clipPath82"
       clipPathUnits="userSpaceOnUse"><path
         id="path84"
         d="M 301.772,523.905 95.677,317.811 333.535,79.953 505.551,253.057 301.772,523.905 Z" /></clipPath><linearGradient
       id="linearGradient86"
       spreadMethod="pad"
       gradientTransform="matrix(183.00333,183.00333,183.00333,-183.00333,230.05615,214.33105)"
       gradientUnits="userSpaceOnUse"
       y2="0"
       x2="1"
       y1="0"
       x1="0"><stop
         id="stop88"
         offset="0"
         style="stop-opacity:1;stop-color:#ffffff" /><stop
         id="stop90"
         offset="1"
         style="stop-opacity:1;stop-color:#000000" /></linearGradient><radialGradient
       r="27.893999"
       gradientTransform="matrix(3.6201,0,-3.8601,0.97424,3559.6,-3275)"
       cx="612"
       cy="1156"
       gradientUnits="userSpaceOnUse"
       xlink:href="#linearGradient4930"
       fy="1138.6"
       fx="613.52002"
       id="radialGradient8069" /><linearGradient
       id="linearGradient4930"><stop
         offset="0"
         stop-color="#fff"
         id="stop4931" /><stop
         offset="1"
         stop-opacity="0"
         stop-color="#fff"
         id="stop4932" /></linearGradient><radialGradient
       r="21.465"
       gradientTransform="matrix(3.0413,-1.2631,-2.5358,1.9934,1145.1,-1859.7)"
       cx="405.73999"
       cy="851.52002"
       gradientUnits="userSpaceOnUse"
       xlink:href="#linearGradient4930"
       fy="835.96002"
       fx="406.01999"
       id="radialGradient8070" /><radialGradient
       r="21.465"
       gradientTransform="matrix(2.467,-1.0245,-2.0569,1.617,1232.8,-1734.5)"
       cx="405.73999"
       cy="851.52002"
       gradientUnits="userSpaceOnUse"
       xlink:href="#linearGradient4930"
       fy="835.96002"
       fx="406.01999"
       id="radialGradient8071" /><filter
       id="filter4593"
       style="color-interpolation-filters:sRGB"><feFlood
         id="feFlood4595"
         result="flood"
         flood-color="rgb(0,0,0)"
         flood-opacity="0.498039" /><feComposite
         id="feComposite4597"
         result="composite1"
         operator="in"
         in2="SourceGraphic"
         in="flood" /><feGaussianBlur
         id="feGaussianBlur4599"
         result="blur"
         stdDeviation="10"
         in="composite1" /><feOffset
         id="feOffset4601"
         result="offset"
         dy="-5"
         dx="5" /><feComposite
         id="feComposite4603"
         result="composite2"
         operator="over"
         in2="offset"
         in="SourceGraphic" /></filter></defs><g
     transform="matrix(1.25,0,0,-1.25,0,649.99997)"
     id="g10"><g
       style="filter:url(#filter4593)"
       transform="matrix(0.94835698,0,0,0.93815545,-122.3815,-165.54232)"
       id="g4435"><g
         id="g54"
         transform="translate(670.8198,442.8032)"><path
           d="m 0,0 c 0,-36.225 -29.364,-65.591 -65.592,-65.591 -36.226,0 -65.592,29.366 -65.592,65.591 0,36.225 29.366,65.591 65.592,65.591 C -29.364,65.591 0,36.225 0,0"
           style="fill:#fbca97;fill-opacity:1;fill-rule:nonzero;stroke:none"
           id="path56" /></g><g
         id="g58"
         transform="translate(309.481,442.8032)"><path
           d="m 0,0 c 0,-36.225 -29.364,-65.591 -65.591,-65.591 -36.227,0 -65.592,29.366 -65.592,65.591 0,36.225 29.365,65.591 65.592,65.591 C -29.364,65.591 0,36.225 0,0"
           style="fill:#fbca97;fill-opacity:1;fill-rule:nonzero;stroke:none"
           id="path60" /></g><g
         id="g62"
         transform="translate(281.3706,442.8032)"><path
           d="m 0,0 c 0,-20.701 -16.78,-37.481 -37.481,-37.481 -20.701,0 -37.481,16.78 -37.481,37.481 0,20.701 16.78,37.481 37.481,37.481 C -16.78,37.481 0,20.701 0,0"
           style="fill:#d84f51;fill-opacity:1;fill-rule:nonzero;stroke:none"
           id="path64" /></g><g
         id="g66"
         transform="translate(642.7085,442.8032)"><path
           d="m 0,0 c 0,-20.701 -16.781,-37.481 -37.48,-37.481 -20.7,0 -37.481,16.78 -37.481,37.481 0,20.701 16.781,37.481 37.481,37.481 C -16.781,37.481 0,20.701 0,0"
           style="fill:#d84f51;fill-opacity:1;fill-rule:nonzero;stroke:none"
           id="path68" /></g><g
         id="g70"
         transform="translate(614.0132,442.8032)"><path
           d="m 0,0 c 0,-104.794 -84.955,-189.747 -189.747,-189.747 -104.793,0 -189.747,84.953 -189.747,189.747 0,104.795 84.954,189.747 189.747,189.747 C -84.955,189.747 0,104.795 0,0"
           style="fill:#762e33;fill-opacity:1;fill-rule:nonzero;stroke:none"
           id="path72" /></g><g
         id="g106"
         transform="translate(580.6313,468.5713)"><path
           d="m 0,0 c 0,42.694 -34.612,77.304 -77.304,77.304 -34.649,0 -63.967,-22.799 -73.791,-54.213 -9.822,31.414 -39.141,54.213 -73.79,54.213 -42.692,0 -77.304,-34.61 -77.304,-77.304 0,-36.479 25.299,-66.978 59.287,-75.106 -11.548,-17.415 -18.292,-38.297 -18.292,-60.762 0,-60.808 49.294,-110.1 110.099,-110.1 60.806,0 110.1,49.292 110.1,110.1 0,22.465 -6.744,43.347 -18.291,60.762 C -25.302,-66.978 0,-36.479 0,0"
           style="fill:#fbca97;fill-opacity:1;fill-rule:nonzero;stroke:none"
           id="path108" /></g><g
         id="g110"
         transform="translate(338.4976,612.0435)"><path
           d="M 0,0 C 0,0 67.028,39.247 163.072,72.042 L 112.191,18.635 184.156,36.021 171.629,0 l 29.51,0 0,-28.687 L 0,0 Z"
           style="fill:#762e33;fill-opacity:1;fill-rule:nonzero;stroke:none"
           id="path112" /></g><g
         id="g118"
         transform="translate(409.9956,468.5713)"><path
           d="m 0,0 c 0,-29.886 -24.222,-54.112 -54.112,-54.112 -29.89,0 -54.112,24.226 -54.112,54.112 0,29.886 24.222,54.112 54.112,54.112 C -24.222,54.112 0,29.886 0,0"
           style="fill:#f2906a;fill-opacity:1;fill-rule:nonzero;stroke:none"
           id="path120" /></g><g
         id="g122"
         transform="translate(387.6592,468.5713)"><path
           d="m 0,0 c 0,-17.551 -14.225,-31.778 -31.775,-31.778 -17.551,0 -31.776,14.227 -31.776,31.778 0,17.551 14.225,31.778 31.776,31.778 C -14.225,31.778 0,17.551 0,0"
           style="fill:#3e1d15;fill-opacity:1;fill-rule:nonzero;stroke:none"
           id="path124" /></g><g
         id="g126"
         transform="translate(380.2383,468.5713)"><path
           d="m 0,0 c 0,-13.451 -10.903,-24.356 -24.354,-24.356 -13.452,0 -24.355,10.905 -24.355,24.356 0,13.451 10.903,24.356 24.355,24.356 C -10.903,24.356 0,13.451 0,0"
           style="fill:#762e33;fill-opacity:1;fill-rule:nonzero;stroke:none"
           id="path128" /></g><g
         id="g130"
         transform="translate(376.5732,477.0835)"><path
           d="m 0,0 c 0,-10.61 -8.602,-19.211 -19.211,-19.211 -10.611,0 -19.212,8.601 -19.212,19.211 0,10.612 8.601,19.214 19.212,19.214 C -8.602,19.214 0,10.612 0,0"
           style="fill:#3e1d15;fill-opacity:1;fill-rule:nonzero;stroke:none"
           id="path132" /></g><g
         id="g134"
         transform="translate(380.2383,478.1382)"><path
           d="m 0,0 c 0,-6.563 -5.321,-11.884 -11.882,-11.884 -6.566,0 -11.882,5.321 -11.882,11.884 0,6.561 5.316,11.882 11.882,11.882 C -5.321,11.882 0,6.561 0,0"
           style="fill:#f9f6ea;fill-opacity:1;fill-rule:nonzero;stroke:none"
           id="path136" /></g><g
         id="g138"
         transform="translate(560.8433,468.5713)"><path
           d="m 0,0 c 0,-29.886 -24.222,-54.112 -54.112,-54.112 -29.89,0 -54.112,24.226 -54.112,54.112 0,29.886 24.222,54.112 54.112,54.112 C -24.222,54.112 0,29.886 0,0"
           style="fill:#f2906a;fill-opacity:1;fill-rule:nonzero;stroke:none"
           id="path140" /></g><g
         id="g142"
         transform="translate(538.5063,468.5713)"><path
           d="m 0,0 c 0,-17.551 -14.224,-31.778 -31.775,-31.778 -17.551,0 -31.776,14.227 -31.776,31.778 0,17.551 14.225,31.778 31.776,31.778 C -14.224,31.778 0,17.551 0,0"
           style="fill:#3e1d15;fill-opacity:1;fill-rule:nonzero;stroke:none"
           id="path144" /></g><g
         id="g146"
         transform="translate(531.0854,468.5713)"><path
           d="m 0,0 c 0,-13.451 -10.902,-24.356 -24.354,-24.356 -13.452,0 -24.355,10.905 -24.355,24.356 0,13.451 10.903,24.356 24.355,24.356 C -10.902,24.356 0,13.451 0,0"
           style="fill:#762e33;fill-opacity:1;fill-rule:nonzero;stroke:none"
           id="path148" /></g><g
         id="g150"
         transform="translate(527.4204,477.0835)"><path
           d="m 0,0 c 0,-10.61 -8.601,-19.211 -19.212,-19.211 -10.609,0 -19.211,8.601 -19.211,19.211 0,10.612 8.602,19.214 19.211,19.214 C -8.601,19.214 0,10.612 0,0"
           style="fill:#3e1d15;fill-opacity:1;fill-rule:nonzero;stroke:none"
           id="path152" /></g><g
         id="g154"
         transform="translate(531.0854,478.1382)"><path
           d="m 0,0 c 0,-6.563 -5.321,-11.884 -11.882,-11.884 -6.565,0 -11.882,5.321 -11.882,11.884 0,6.561 5.317,11.882 11.882,11.882 C -5.321,11.882 0,6.561 0,0"
           style="fill:#f9f6ea;fill-opacity:1;fill-rule:nonzero;stroke:none"
           id="path156" /></g><g
         id="g158"
         transform="translate(446.3833,384.5967)"><path
           d="m 0,0 c 0,-2.682 -8.776,-4.854 -19.596,-4.854 -10.821,0 -19.596,2.172 -19.596,4.854 0,2.679 8.775,4.852 19.596,4.852 C -8.776,4.852 0,2.679 0,0"
           style="fill:#f2906a;fill-opacity:1;fill-rule:nonzero;stroke:none"
           id="path160" /></g></g><g
       display="block"
       id="layer1"
       style="display:block"
       transform="matrix(0.34156406,0,0,-0.3930271,212.64803,165.78026)"><g
         id="g8064"
         style="fill-rule:evenodd"><path
           d="m 204.02,212.29 c -22.904,0 -40.456,-2.3797 -66.605,-21.432 C 110.891,171.533 97.453,144.074 71.262,120.871 63.9824,114.4222 38.605,98.335 27.622,94.405 49.775,82.564 73.735,65.288 82.322,59.07 106.126,41.832 126.2,18.54 143.147,18.625 c 13.441,0.06852 28.397,18.241 60.872,18.241 33.018,0 47.431,-18.172 60.872,-18.241 16.947,-0.08443 37.022,23.207 60.825,40.445 8.5869,6.2184 32.547,23.494 54.7,35.335 -10.983,3.9299 -36.36,20.017 -43.64,26.466 -26.192,23.203 -39.63,50.662 -66.153,69.987 -26.149,19.052 -44.244,21.432 -66.605,21.432 z m 0,-78.466 c -8.3143,0 -14.686,-0.5797 -24.178,-5.2206 -9.6285,-4.7075 -14.506,-6.1756 -24.014,-11.828 -2.6426,-1.5709 -11.855,-5.4897 -15.842,-6.447 8.0418,-2.8844 16.74,-7.0927 19.857,-8.6075 8.641,-4.1991 15.928,-9.8727 22.08,-9.8522 4.8792,0.01672 10.308,4.4434 22.097,4.4434 11.986,0 17.218,-4.4267 22.097,-4.4434 6.1521,-0.0205 13.439,5.6531 22.08,9.8522 3.1171,1.5148 11.815,5.7231 19.857,8.6075 -3.9869,0.95734 -13.199,4.8761 -15.842,6.447 -9.508,5.6521 -14.386,7.1202 -24.014,11.828 -9.4924,4.6409 -16.061,5.2206 -24.178,5.2206 z"
           id="path1070"
           style="fill:#ff007f;stroke:#ff007f;stroke-width:5" /><rect
           x="755.35999"
           y="914.98999"
           width="88.695999"
           height="56.618"
           transform="matrix(1.2284,0,-0.68898,0.98984,-114.33,-775.42)"
           id="rect4935"
           style="fill:url(#radialGradient8069);stroke-width:1.77199996;stroke-linecap:round" /><rect
           x="222.28999"
           y="239.64"
           width="46.953999"
           height="39.250999"
           transform="matrix(1.2158,-0.17065,-0.40983,1.1271,-64.381,-202.65)"
           id="rect7425"
           style="fill:url(#radialGradient8070);stroke-width:1.77199996;stroke-linecap:round" /><rect
           x="331.17001"
           y="253.46001"
           width="38.087002"
           height="31.837999"
           transform="matrix(1.2158,-0.17065,-0.40983,1.1271,-64.381,-202.65)"
           id="rect8048"
           style="fill:url(#radialGradient8071);stroke-width:1.77199996;stroke-linecap:round" /></g></g></g></svg>