<?xml version="1.0" encoding="UTF-8" standalone="no"?>
<!-- Created with Inkscape (http://www.inkscape.org/) -->

<svg
   xmlns:dc="http://purl.org/dc/elements/1.1/"
   xmlns:cc="http://creativecommons.org/ns#"
   xmlns:rdf="http://www.w3.org/1999/02/22-rdf-syntax-ns#"
   xmlns:svg="http://www.w3.org/2000/svg"
   xmlns="http://www.w3.org/2000/svg"
   xmlns:sodipodi="http://sodipodi.sourceforge.net/DTD/sodipodi-0.dtd"
   xmlns:inkscape="http://www.inkscape.org/namespaces/inkscape"
   version="1.1"
   width="300"
   height="147.22501"
   id="svg15656"
   sodipodi:docname="ec.svg"
   inkscape:version="0.92.4 (5da689c313, 2019-01-14)">
  <sodipodi:namedview
     pagecolor="#ffffff"
     bordercolor="#666666"
     borderopacity="1"
     objecttolerance="10"
     gridtolerance="10"
     guidetolerance="10"
     inkscape:pageopacity="0"
     inkscape:pageshadow="2"
     inkscape:window-width="1850"
     inkscape:window-height="1019"
     id="namedview66"
     showgrid="false"
     inkscape:zoom="1.560349"
     inkscape:cx="331.88604"
     inkscape:cy="213.39363"
     inkscape:window-x="70"
     inkscape:window-y="27"
     inkscape:window-maximized="1"
     inkscape:current-layer="svg15656" />
  <defs
     id="defs15658" />
  <metadata
     id="metadata15661">
    <rdf:RDF>
      <cc:Work
         rdf:about="">
        <dc:format>image/svg+xml</dc:format>
        <dc:type
           rdf:resource="http://purl.org/dc/dcmitype/StillImage" />
        <dc:title></dc:title>
      </cc:Work>
    </rdf:RDF>
  </metadata>
  <path
     d="m 0.00280773,54.577161 c 0,0 88.88512227,-11.502647 91.39283527,-11.910221 3.849311,-0.628343 7.262744,-1.364241 10.449747,-2.241658 7.18915,-1.969941 13.80657,-4.9758 19.66545,-8.938326 5.62113,-3.7644 10.846,-9.244008 16.02559,-15.255726 3.2889,-3.826668 6.74761,-8.8137909 9.97424,-13.6254299 v -2.326568 c -3.82667,5.666412 -7.59673,10.5516409 -11.47434,14.8594729 -5.13996,5.72302 -10.529,10.398801 -16.02559,13.908467 -5.67207,3.656845 -12.05174,6.379667 -18.97484,8.106196 -3.102089,0.781184 -6.419289,1.415188 -10.155385,1.935977 -2.456767,0.345079 -4.992783,0.611361 -7.443889,0.866095 -0.97931,0.107781 -83.43381827,8.853415 -83.43381827,8.853415 z"
     id="path5555"
     style="fill:#bdbcbc;fill-opacity:1;fill-rule:nonzero;stroke:none;stroke-width:4.52860117"
     inkscape:connector-curvature="0" />
  <path
     d="m 119.20012,39.674667 c -5.56452,3.198324 -11.98947,5.541876 -19.09937,6.957063 -3.034166,0.617022 -6.345706,1.115168 -10.115766,1.522743 -2.219015,0.243185 -4.449351,0.435651 -6.685348,0.628343 -1.20574,0.101894 -2.41148,0.209221 -3.61722,0.317002 -27.239537,2.445445 -54.337555,5.04373 -79.68074042,7.500496 V 62.36862 C 25.542987,59.289171 52.833471,56.022917 80.061686,52.943468 c 1.211401,-0.141292 2.422802,-0.27715 3.634203,-0.407574 2.230336,-0.243638 4.466333,-0.492485 6.70233,-0.786844 3.877614,-0.515129 7.268405,-1.109507 10.364831,-1.811441 7.38728,-1.652939 14.05565,-4.256885 19.82396,-7.749569 5.72868,-3.436076 10.78939,-8.253375 16.23503,-14.140557 3.39079,-3.662506 7.16085,-8.836433 10.69316,-13.693358 v -2.117121 c -4.16065,5.638108 -8.10619,10.376157 -12.00645,14.417934 -5.31545,5.507911 -10.80072,9.883672 -16.30863,13.019729"
     id="path5559"
     style="fill:#bdbcbc;fill-opacity:1;fill-rule:nonzero;stroke:none;stroke-width:4.52860117"
     inkscape:connector-curvature="0" />
  <path
     d="m 134.75532,38.262332 c -5.423,4.9758 -11.08375,8.88738 -16.82941,11.627184 -5.62113,2.7115 -11.90456,4.613512 -19.223912,5.813592 -3.017181,0.503806 -6.300417,0.911381 -10.030852,1.251026 L 0.00113215,64.23386 v 5.751324 L 78.821438,61.624254 89.016452,60.554372 c 3.84365,-0.446973 7.194815,-0.945346 10.240299,-1.522743 7.579749,-1.43217 14.083949,-3.566273 19.874899,-6.532507 5.92115,-2.994537 11.83663,-7.975999 17.33888,-13.251819 3.69081,-3.53797 7.24576,-8.106197 11.04413,-12.895193 v -1.918994 c -4.38708,5.456964 -8.57604,9.996887 -12.75934,13.829216"
     id="path5563"
     style="fill:#bdbcbc;fill-opacity:1;fill-rule:nonzero;stroke:none;stroke-width:4.52860117"
     inkscape:connector-curvature="0" />
  <path
     d="m 113.31466,68.137515 c -5.1626,2.886983 -9.02324,4.551244 -16.393535,5.321106 -4.455011,0.481164 -9.034559,0.707594 -13.466928,0.928363 -2.139764,0.107328 -4.285189,0.215109 -6.430614,0.350967 -13.393338,0.764201 -26.548925,1.613314 -39.970567,2.48507 L 0.00339645,79.719412 v 5.751324 L 37.426626,82.040321 c 12.091365,-1.086865 26.141351,-2.337891 39.857352,-3.45872 l 9.974244,-0.769862 c 3.894597,-0.299793 7.087261,-0.617022 10.042174,-1.001953 7.585404,-0.97931 14.066964,-2.513374 19.806964,-4.681442 6.18155,-2.309586 12.01212,-5.898503 17.84835,-10.121423 5.2645,-3.804026 12.54989,-11.304521 12.55555,-11.400754 v -2.03221 c -4.76069,4.641816 -7.50049,7.251423 -12.71405,10.687499 -6.23248,4.104045 -16.85205,6.289095 -21.48255,8.876059"
     id="path5567"
     style="fill:#bdbcbc;fill-opacity:1;fill-rule:nonzero;stroke:none;stroke-width:4.52860117"
     inkscape:connector-curvature="0" />
  <path
     d="m 115.19969,79.07069 c -5.59282,1.641618 -11.88758,2.751126 -19.246553,3.39079 -2.983216,0.260395 -6.198523,0.458521 -9.832726,0.605701 l -9.917637,0.435651 C 51.561523,84.646304 27.033486,85.925634 0.00339645,87.357804 v 5.734342 C 25.827746,91.0939 51.131305,89.152262 76.429204,87.352143 l 9.883673,-0.673629 c 3.821007,-0.25496 6.985367,-0.52645 9.962923,-0.860434 7.54012,-0.843452 13.99338,-2.145425 19.72206,-3.979509 6.3457,-2.009566 12.5329,-4.924854 18.38612,-8.66095 4.31915,-2.751125 8.64397,-6.034361 13.12728,-9.94594 v -0.101894 c -4.94183,4.21726 -9.65158,5.156945 -14.34434,7.987321 -5.75133,3.487023 -11.79701,6.158898 -17.96723,7.953356"
     id="path5571"
     style="fill:#bdbcbc;fill-opacity:1;fill-rule:nonzero;stroke:none;stroke-width:4.52860117"
     inkscape:connector-curvature="0" />
  <path
     d="m 114.28491,88.602264 c -5.63244,1.318955 -11.7404,2.162407 -19.218247,2.666214 -2.881322,0.192465 -5.983414,0.334211 -9.759136,0.45286 l -9.821404,0.350967 C 50.737317,93.006329 25.643205,94.081871 0,95.197039 v 5.734341 c 25.479043,-1.73785 50.471262,-3.430415 75.678589,-5.004104 l 9.798761,-0.588718 c 3.84365,-0.220995 6.974046,-0.441538 9.855368,-0.707594 7.613712,-0.701933 13.846202,-1.726529 19.608842,-3.215307 6.46458,-1.664261 12.74801,-4.109705 18.67482,-7.257083 4.58521,-2.428463 9.1591,-5.34941 13.89715,-8.870398 v -2.451105 c -5.12298,3.69647 -10.03652,6.713651 -14.95005,9.170417 -5.82491,2.915287 -11.97249,5.134302 -18.27857,6.594776"
     id="path5575"
     style="fill:#bdbcbc;fill-opacity:1;fill-rule:nonzero;stroke:none;stroke-width:4.52860117"
     inkscape:connector-curvature="0" />
  <path
     d="m 113.44599,97.947621 c -5.65509,1.035918 -11.7404,1.698226 -19.161643,2.077499 -2.79075,0.14718 -5.779627,0.24907 -9.685546,0.33965 l -84.5942724,2.28694 v 5.73434 l 75.0106204,-3.91724 9.71951,-0.49248 c 3.792704,-0.18115 6.894796,-0.36229 9.764797,-0.58306 7.523134,-0.5774 13.710344,-1.40387 19.472984,-2.60961 6.54383,-1.358582 12.89519,-3.339846 18.87295,-5.887184 4.8173,-2.043531 9.64026,-4.534262 14.667,-7.562764 v -2.303926 c -5.36639,3.124735 -10.47239,5.626787 -15.54442,7.636354 -5.89284,2.343551 -12.12533,4.121027 -18.52198,5.281481"
     id="path5579"
     style="fill:#bdbcbc;fill-opacity:1;fill-rule:nonzero;stroke:none;stroke-width:4.52860117"
     inkscape:connector-curvature="0" />
  <path
     d="m 112.78196,107.33315 c -10.38182,1.38689 -21.063654,1.54539 -31.400187,1.69823 -2.366194,0.0317 -4.738049,0.0679 -7.104243,0.1191 l -74.27472227,1.33594 v 5.72302 L 74.407727,113.00545 c 2.354873,-0.10733 4.721067,-0.20379 7.087261,-0.29436 10.404462,-0.41889 21.165552,-0.84911 31.688892,-2.51903 6.65704,-1.04724 13.06501,-2.60395 19.04842,-4.61352 4.95316,-1.6586 10.0818,-3.80402 15.27837,-6.340041 v -2.196372 c -5.46262,2.541678 -10.83468,4.658803 -15.99162,6.243813 -5.90983,1.82276 -12.21024,3.187 -18.73709,4.04744"
     id="path5583"
     style="fill:#bdbcbc;fill-opacity:1;fill-rule:nonzero;stroke:none;stroke-width:4.52860117"
     inkscape:connector-curvature="0" />
  <path
     d="m 112.19211,116.7775 c -9.72517,0.80383 -19.67677,0.80383 -29.305709,0.80383 -2.994537,0 -5.989075,0 -8.983613,0.0226 -24.607287,0.10778 -49.016448,0.31157 -73.90111242,0.52645 v 5.72302 C 23.703243,123.04962 48.842641,122.21183 73.9877,121.46461 c 2.983216,-0.1019 5.966432,-0.17526 8.955309,-0.25451 9.679885,-0.24319 19.688091,-0.49249 29.515161,-1.55671 6.86083,-0.7359 13.1103,-1.8171 19.09371,-3.29455 5.21921,-1.285 10.57995,-2.99454 15.96332,-5.0494 v -2.10579 c -5.55886,1.99258 -11.09507,3.62288 -16.48977,4.81163 -5.9268,1.30764 -12.0857,2.2077 -18.83332,2.76245"
     id="path5587"
     style="fill:#bdbcbc;fill-opacity:1;fill-rule:nonzero;stroke:none;stroke-width:4.52860117"
     inkscape:connector-curvature="0" />
  <path
     d="m 111.81628,126.08777 c -4.0531,0.1585 -8.44018,0.23775 -13.415978,0.23775 -1.879369,0 -3.764399,-0.009 -5.638108,-0.0272 l -19.144662,-0.23187 c -13.059354,-0.0965 -26.073422,-0.1191 -38.283663,-0.12997 l -35.32875168,0.0317 v 5.71736 L 35.41878,130.76284 c 12.164955,-0.2998 25.212988,-0.61136 38.238377,-0.84346 l 19.12768,-0.25496 c 5.247517,-0.0793 12.170613,-0.23775 19.184283,-0.69627 6.87216,-0.44697 13.12729,-1.13215 19.12202,-2.08882 5.3947,-0.86043 10.90827,-2.02088 16.42184,-3.43041 v -2.02655 c -5.66641,1.30197 -11.29886,2.34921 -16.76148,3.07945 -5.96077,0.79816 -12.15364,1.31329 -18.93522,1.58501"
     id="path5591"
     style="fill:#bdbcbc;fill-opacity:1;fill-rule:nonzero;stroke:none;stroke-width:4.52860117"
     inkscape:connector-curvature="0" />
  <path
     d="M 92.539704,135.08438 73.462971,134.88059 C 49.121739,134.53506 24.80881,134.09374 0.00339645,133.62956 v 5.72302 C 23.67666,139.19997 48.75379,139.01837 73.479953,138.74122 l 19.088054,-0.28304 c 6.430614,-0.11321 12.731033,-0.23186 19.099373,-0.44154 13.11596,-0.41889 24.86768,-1.34159 35.84388,-2.79641 v -1.99258 c -11.02148,1.18876 -22.78452,1.81144 -35.91181,1.89635 -6.3457,0.0566 -12.702722,0.0136 -19.059746,-0.0408"
     id="path5595"
     style="fill:#bdbcbc;fill-opacity:1;fill-rule:nonzero;stroke:none;stroke-width:4.52860117"
     inkscape:connector-curvature="0" />
  <path
     d="M 147.51298,145.20471 0.00511732,141.46296 v 5.72302 H 147.51298 Z"
     id="path5599"
     style="fill:#bdbcbc;fill-opacity:1;fill-rule:nonzero;stroke:none;stroke-width:4.52860117"
     inkscape:connector-curvature="0" />
  <path
     d="m 134.23059,49.072692 c -5.60414,4.500297 -9.92895,7.698622 -16.78978,10.421444 -5.9721,2.377515 -12.38573,3.345504 -19.716401,4.347457 -4.715406,0.662308 -9.645921,1.635957 -14.355666,1.952959 -1.935978,0.129971 -3.871955,0.254507 -5.802271,0.407574 L 0.00285302,71.857217 v 5.740002 L 77.877813,70.045777 87.976594,69.100431 c 3.741757,-0.356854 7.070279,-0.764201 10.161049,-1.268008 7.545777,-1.211401 14.049987,-3.056806 19.880557,-5.655091 6.04568,-2.666214 12.16496,-7.036314 17.85401,-11.81965 3.8663,-3.249271 7.59107,-7.336334 11.63851,-11.802667 v -2.054853 c -4.89655,5.060712 -8.96097,9.10815 -13.28013,12.57253"
     id="path5603"
     style="fill:#bdbcbc;fill-opacity:1;fill-rule:nonzero;stroke:none;stroke-width:4.52860117"
     inkscape:connector-curvature="0" />
  <path
     d="M 190.54882,60.730987 H 61.313865 V 147.18199 H 190.54882 Z"
     id="path5607"
     style="fill:#254aa5;fill-opacity:1;fill-rule:nonzero;stroke:none;stroke-width:4.52860117"
     inkscape:connector-curvature="0" />
  <path
     d="m 127.33349,73.025008 h 4.49464 l -3.62288,2.824715 1.40952,4.477654 -3.61156,-2.756786 -3.61156,2.756786 1.42651,-4.477654 -3.65684,-2.824715 h 4.48331 l 1.35858,-4.370101 z"
     id="path5611"
     style="fill:#fff200;fill-opacity:1;fill-rule:nonzero;stroke:none;stroke-width:4.52860117"
     inkscape:connector-curvature="0" />
  <path
     d="m 127.49204,130.67809 h 4.50595 l -3.62854,2.72282 1.40953,4.30217 -3.61156,-2.64923 -3.6059,2.64923 1.42085,-4.30217 -3.66251,-2.72282 h 4.48898 l 1.35858,-4.20028 z"
     id="path5615"
     style="fill:#fff200;fill-opacity:1;fill-rule:nonzero;stroke:none;stroke-width:4.52860117"
     inkscape:connector-curvature="0" />
  <path
     d="m 141.75315,126.86044 h 4.50595 l -3.62854,2.71716 1.40953,4.30783 -3.61156,-2.66056 -3.6059,2.66056 1.42085,-4.30783 -3.66251,-2.71716 h 4.48898 l 1.35858,-4.20594 z"
     id="path5619"
     style="fill:#fff200;fill-opacity:1;fill-rule:nonzero;stroke:none;stroke-width:4.52860117"
     inkscape:connector-curvature="0" />
  <path
     d="m 141.75315,76.870922 h 4.50595 l -3.62854,2.717161 1.40953,4.307832 -3.61156,-2.654893 -3.6059,2.654893 1.42085,-4.307832 -3.66251,-2.717161 h 4.48898 l 1.35858,-4.200278 z"
     id="path5623"
     style="fill:#fff200;fill-opacity:1;fill-rule:nonzero;stroke:none;stroke-width:4.52860117"
     inkscape:connector-curvature="0" />
  <path
     d="m 152.34156,87.458203 h 4.49464 l -3.62289,2.7115 1.40953,4.313493 -3.61156,-2.654892 -3.60024,2.654892 1.42085,-4.313493 -3.6625,-2.7115 h 4.48331 l 1.35858,-4.205938 z"
     id="path5627"
     style="fill:#fff200;fill-opacity:1;fill-rule:nonzero;stroke:none;stroke-width:4.52860117"
     inkscape:connector-curvature="0" />
  <path
     d="m 152.34156,116.41694 h 4.49464 l -3.62289,2.72282 1.40953,4.31349 -3.61156,-2.66055 -3.60024,2.66055 1.42085,-4.31349 -3.6625,-2.72282 h 4.48331 l 1.35858,-4.20594 z"
     id="path5631"
     style="fill:#fff200;fill-opacity:1;fill-rule:nonzero;stroke:none;stroke-width:4.52860117"
     inkscape:connector-curvature="0" />
  <path
     d="m 156.30866,101.71651 h 4.50596 l -3.62855,2.71716 1.40953,4.31349 -3.61156,-2.66055 -3.6059,2.66055 1.42085,-4.31349 -3.6625,-2.71716 h 4.48331 l 1.36424,-4.200283 z"
     id="path5635"
     style="fill:#fff200;fill-opacity:1;fill-rule:nonzero;stroke:none;stroke-width:4.52860117"
     inkscape:connector-curvature="0" />
  <path
     d="m 112.79387,76.906019 h 4.49464 l -3.62288,2.722821 1.40952,4.307832 -3.61155,-2.660553 -3.61156,2.660553 1.42651,-4.307832 -3.65685,-2.722821 h 4.48331 l 1.35859,-4.200278 z"
     id="path5639"
     style="fill:#fff200;fill-opacity:1;fill-rule:nonzero;stroke:none;stroke-width:4.52860117"
     inkscape:connector-curvature="0" />
  <path
     d="m 102.49923,87.4933 h 4.50596 l -3.62854,2.717161 1.40386,4.313492 -3.6059,-2.660553 -3.605895,2.660553 1.415188,-4.313492 -3.656845,-2.717161 h 4.488976 l 1.358576,-4.200278 z"
     id="path5643"
     style="fill:#fff200;fill-opacity:1;fill-rule:nonzero;stroke:none;stroke-width:4.52860117"
     inkscape:connector-curvature="0" />
  <path
     d="m 98.678223,101.75219 h 4.500297 l -3.622881,2.71716 1.403861,4.3135 -3.605893,-2.6549 -3.61156,2.6549 1.420849,-4.3135 -3.651185,-2.71716 h 4.483315 l 1.358581,-4.200278 z"
     id="path5647"
     style="fill:#fff200;fill-opacity:1;fill-rule:nonzero;stroke:none;stroke-width:4.52860117"
     inkscape:connector-curvature="0" />
  <path
     d="m 102.49923,116.45262 h 4.50596 l -3.62854,2.72282 1.40386,4.3135 -3.6059,-2.66056 -3.605895,2.66056 1.415188,-4.3135 -3.656845,-2.72282 h 4.488976 l 1.358576,-4.19461 z"
     id="path5651"
     style="fill:#fff200;fill-opacity:1;fill-rule:nonzero;stroke:none;stroke-width:4.52860117"
     inkscape:connector-curvature="0" />
  <path
     d="m 112.94386,126.89612 h 4.49464 l -3.62289,2.71716 1.39821,4.30783 -3.60024,-2.65489 -3.61156,2.65489 1.42651,-4.30783 -3.65684,-2.71716 h 4.48331 l 1.35858,-4.20594 z"
     id="path5655"
     style="fill:#fff200;fill-opacity:1;fill-rule:nonzero;stroke:none;stroke-width:4.52860117"
     inkscape:connector-curvature="0" />
  <path
     d="m 208.94115,1.7910352e-4 c 0,0 26.94518,41.96315189648 31.87569,49.67875689648 4.92486,7.709943 10.5573,13.812234 30.49447,17.955904 19.93717,4.14367 28.6151,6.10229 28.6151,6.10229 v 1.494438 c 0,0 -12.66876,-2.649231 -28.97173,-6.215505 C 254.65738,65.44979 247.99467,64.24405 240.56211,54.111304 234.37491,45.676784 208.94115,9.8272441 208.94115,9.8272441 Z"
     id="path5661"
     style="fill:#bdbcbc;fill-opacity:1;fill-rule:nonzero;stroke:none;stroke-width:4.52860117"
     inkscape:connector-curvature="0" />
  <path
     d="m 208.94115,11.931912 c 0,0 27.84524,39.891316 31.54171,44.782206 3.69647,4.890889 8.67227,12.770655 30.68127,17.423793 C 276.84753,75.337991 300,79.894896 300,79.894896 v 1.262347 c 0,0 -17.59362,-3.39079 -28.83587,-5.756984 C 259.91622,73.034065 248.10223,70.877318 240.56211,61.367256 233.7126,52.728949 208.8902,20.870238 208.8902,20.870238 l 0.0507,-8.938326 z"
     id="path5665"
     style="fill:#bdbcbc;fill-opacity:1;fill-rule:nonzero;stroke:none;stroke-width:4.52860117"
     inkscape:connector-curvature="0" />
  <path
     d="m 208.94115,23.915723 c 0,0 26.23758,33.902241 31.54171,40.683822 5.29846,6.775919 12.60649,12.374403 30.68127,15.844444 10.42145,2.003906 28.75662,5.360731 28.75662,5.360731 v 1.262348 c 0,0 -16.06521,-2.994538 -28.75662,-5.281481 C 258.47273,79.498643 247.99467,77.285289 240.48286,68.85643 233.89374,61.457828 208.8902,32.378547 208.8902,32.378547 l 0.0507,-8.462824 z"
     id="path5669"
     style="fill:#bdbcbc;fill-opacity:1;fill-rule:nonzero;stroke:none;stroke-width:4.52860117"
     inkscape:connector-curvature="0" />
  <path
     d="m 208.88912,35.689543 c 0,0 26.5659,30.754863 31.6719,36.240132 7.95336,8.542074 11.80833,11.485665 30.60202,15.057599 7.51748,1.43217 28.75662,5.128641 28.75662,5.128641 v 1.335937 c 0,0 -17.58795,-3.153038 -28.75662,-5.12298 -11.163,-1.969941 -20.61079,-2.705839 -30.68127,-12.380064 -7.67032,-7.364638 -31.54171,-32.322891 -31.54171,-32.322891 l -0.0512,-7.936374 z"
     id="path5673"
     style="fill:#bdbcbc;fill-opacity:1;fill-rule:nonzero;stroke:none;stroke-width:4.52860117"
     inkscape:connector-curvature="0" />
  <path
     d="m 208.94115,47.936556 c 0,0 24.52804,25.196006 31.62096,32.430446 7.52314,7.670319 17.1634,10.512016 30.52277,12.849907 12.75367,2.230336 28.83587,4.811638 28.83587,4.811638 v 1.415188 c 0,0 -15.10289,-2.422801 -28.83587,-4.726727 C 257.61795,92.452707 248.1928,91.19602 240.48286,84.227635 233.57674,77.989487 208.94115,55.34648 208.94115,55.34648 Z"
     id="path5677"
     style="fill:#bdbcbc;fill-opacity:1;fill-rule:nonzero;stroke:none;stroke-width:4.52860117"
     inkscape:connector-curvature="0" />
  <path
     d="m 208.94115,59.289171 c 0,0 23.32796,21.233479 31.62096,28.490563 7.63069,6.674026 13.81789,8.751522 30.60202,11.666809 16.78979,2.915287 28.75662,4.726727 28.75662,4.726727 v 1.5001 c 0,0 -15.18214,-2.44544 -28.83587,-4.57388 -13.65373,-2.12845 -22.35431,-2.966241 -30.52277,-9.459123 -9.42515,-7.494836 -31.62096,-25.411114 -31.62096,-25.411114 z"
     id="path5681"
     style="fill:#bdbcbc;fill-opacity:1;fill-rule:nonzero;stroke:none;stroke-width:4.52860117"
     inkscape:connector-curvature="0" />
  <path
     d="m 208.88798,71.43094 c 0,0 26.6112,20.684386 31.59266,24.307267 4.98146,3.628542 11.56491,7.857123 30.68127,10.568623 18.95786,2.6832 28.67737,4.01914 28.67737,4.01914 v 1.57935 c 0,0 -17.18604,-2.45111 -28.67737,-3.8663 -11.48566,-1.42084 -20.29379,-2.02088 -30.60202,-8.751521 -10.03651,-6.54949 -31.62096,-21.442928 -31.62096,-21.442928 l -0.0512,-6.413631 z"
     id="path5685"
     style="fill:#bdbcbc;fill-opacity:1;fill-rule:nonzero;stroke:none;stroke-width:4.52860117"
     inkscape:connector-curvature="0" />
  <path
     d="m 208.88798,83.046802 c 0,0 26.69045,17.423798 31.75116,20.186248 5.06637,2.75678 11.01016,7.25142 30.52277,9.69686 19.51827,2.43979 28.67737,3.54363 28.67737,3.54363 v 1.5001 c 0,0 -16.14446,-1.73219 -28.75662,-3.07378 -12.61215,-1.3416 -21.20517,-3.15304 -30.60202,-8.20243 -9.39685,-5.04373 -31.54171,-17.712499 -31.54171,-17.712499 l -0.0512,-5.938129 z"
     id="path5689"
     style="fill:#bdbcbc;fill-opacity:1;fill-rule:nonzero;stroke:none;stroke-width:4.52860117"
     inkscape:connector-curvature="0" />
  <path
     d="m 208.94115,94.662665 c 0,0 23.62232,12.595175 31.62096,16.529395 8.91568,4.38709 16.62563,6.49289 30.60202,8.11752 13.72166,1.60765 28.75662,3.1587 28.75662,3.1587 v 1.42085 c 0,0 -13.90281,-1.46047 -28.75662,-2.8417 -14.72361,-1.36424 -19.97113,-1.99824 -30.60202,-6.62308 C 231.05205,110.292 208.8902,100.1819 208.8902,100.1819 l 0.0507,-5.519235 z"
     id="path5693"
     style="fill:#bdbcbc;fill-opacity:1;fill-rule:nonzero;stroke:none;stroke-width:4.52860117"
     inkscape:connector-curvature="0" />
  <path
     d="m 208.94115,106.48857 c 0,0 18.58425,7.80051 31.70021,12.90085 12.90651,5.02109 22.76188,5.44564 30.60202,6.31174 3.45306,0.3795 28.59812,2.91529 28.59812,2.91529 v 1.41518 c 0,0 -15.02364,-1.17743 -28.67737,-2.36053 -13.65373,-1.1831 -19.54657,-1.68124 -30.60202,-5.28148 -11.19131,-3.63986 -31.67191,-10.64221 -31.67191,-10.64221 l 0.0507,-5.25884 z"
     id="path5697"
     style="fill:#bdbcbc;fill-opacity:1;fill-rule:nonzero;stroke:none;stroke-width:4.52860117"
     inkscape:connector-curvature="0" />
  <path
     d="m 208.94115,118.47238 c 0,0 18.8503,5.72868 31.70021,9.04022 12.8499,3.31154 24.65823,4.65314 30.60202,5.04373 5.94379,0.39625 28.59812,2.20769 28.59812,2.20769 v 1.3416 c 0,0 -12.84991,-0.86043 -28.67737,-1.96994 -12.79896,-0.8944 -23.07888,-1.83975 -30.60202,-3.47004 -8.33829,-1.80578 -31.67191,-7.25143 -31.67191,-7.25143 l 0.0507,-4.94183 z"
     id="path5701"
     style="fill:#bdbcbc;fill-opacity:1;fill-rule:nonzero;stroke:none;stroke-width:4.52860117"
     inkscape:connector-curvature="0" />
  <path
     d="m 208.88912,130.29936 c 0,0 15.46517,2.60961 31.75115,5.25318 12.21024,1.98693 28.75662,3.23795 30.52277,3.31154 1.76616,0.0793 28.75662,1.89635 28.75662,1.89635 v 1.41519 c 0,0 -17.27095,-0.87175 -28.75662,-1.49444 -11.96116,-0.65098 -23.84874,-1.35858 -30.60202,-2.04919 -15.12553,-1.55105 -31.6719,-3.60024 -31.6719,-3.60024 z"
     id="path5705"
     style="fill:#bdbcbc;fill-opacity:1;fill-rule:nonzero;stroke:none;stroke-width:4.52860117"
     inkscape:connector-curvature="0" />
  <path
     d="m 208.94115,142.54357 c 0,0 24.31293,0.8944 31.70021,1.0529 7.38728,0.1585 59.27939,2.20769 59.27939,2.20769 v 1.42085 l -90.9796,-0.0566 z"
     id="path5709"
     style="fill:#bdbcbc;fill-opacity:1;fill-rule:nonzero;stroke:none;stroke-width:4.52860117"
     inkscape:connector-curvature="0" />
</svg>
