<?xml version="1.0" encoding="UTF-8" standalone="no"?>
<svg
   xmlns:dc="http://purl.org/dc/elements/1.1/"
   xmlns:cc="http://creativecommons.org/ns#"
   xmlns:rdf="http://www.w3.org/1999/02/22-rdf-syntax-ns#"
   xmlns:svg="http://www.w3.org/2000/svg"
   xmlns="http://www.w3.org/2000/svg"
   version="1.1"
   id="svg2"
   viewBox="0 0 120.00001 60"
   height="60"
   width="120">
  <defs
     id="defs4">
    <filter
       id="filter4404"
       style="color-interpolation-filters:sRGB">
      <feFlood
         id="feFlood4406"
         result="flood"
         flood-color="rgb(0,0,0)"
         flood-opacity="0.498039" />
      <feComposite
         id="feComposite4408"
         result="composite1"
         operator="in"
         in2="SourceGraphic"
         in="flood" />
      <feGaussianBlur
         id="feGaussianBlur4410"
         result="blur"
         stdDeviation="1"
         in="composite1" />
      <feOffset
         id="feOffset4412"
         result="offset"
         dy="1"
         dx="1" />
      <feComposite
         id="feComposite4414"
         result="composite2"
         operator="over"
         in2="offset"
         in="SourceGraphic" />
    </filter>
    <filter
       id="filter4416"
       style="color-interpolation-filters:sRGB">
      <feFlood
         id="feFlood4418"
         result="flood"
         flood-color="rgb(0,0,0)"
         flood-opacity="0.498039" />
      <feComposite
         id="feComposite4420"
         result="composite1"
         operator="in"
         in2="SourceGraphic"
         in="flood" />
      <feGaussianBlur
         id="feGaussianBlur4422"
         result="blur"
         stdDeviation="1"
         in="composite1" />
      <feOffset
         id="feOffset4424"
         result="offset"
         dy="1"
         dx="1" />
      <feComposite
         id="feComposite4426"
         result="composite2"
         operator="over"
         in2="offset"
         in="SourceGraphic" />
    </filter>
  </defs>
  <metadata
     id="metadata7">
    <rdf:RDF>
      <cc:Work
         rdf:about="">
        <dc:format>image/svg+xml</dc:format>
        <dc:type
           rdf:resource="http://purl.org/dc/dcmitype/StillImage" />
        <dc:title></dc:title>
      </cc:Work>
    </rdf:RDF>
  </metadata>
  <g
     transform="translate(0,-992.36228)"
     id="layer1">
    <g
       transform="matrix(1.042357,0,0,1.1207395,-318.86945,432.65035)"
       id="text4138"
       style="font-style:normal;font-weight:normal;font-size:40px;line-height:125%;font-family:sans-serif;letter-spacing:0px;word-spacing:0px;fill:#1c3984;fill-opacity:1;stroke:none;stroke-width:1px;stroke-linecap:butt;stroke-linejoin:miter;stroke-opacity:1;filter:url(#filter4416)">
      <path
         id="path4150"
         style="font-style:normal;font-variant:normal;font-weight:normal;font-stretch:normal;font-family:HandelGotDLig;-inkscape-font-specification:HandelGotDLig;fill:#1c3984;fill-opacity:1"
         d="m 332.65271,539.51117 11.03516,-26.66016 5.60546,0 10.60547,26.66016 -4.53125,0 -2.71484,-6.97266 -12.63672,0 -2.83203,6.97266 -4.53125,0 z m 13.76953,-23.47656 -5.11719,13.10547 9.98047,0 -4.86328,-13.10547 z" />
      <path
         id="path4152"
         style="font-style:normal;font-variant:normal;font-weight:normal;font-stretch:normal;font-family:HandelGotDLig;-inkscape-font-specification:HandelGotDLig;fill:#1c3984;fill-opacity:1"
         d="m 373.23865,512.46039 q 7.53906,0 10.54687,4.55078 2.1875,3.33984 2.1875,9.23828 0,7.24609 -3.65234,10.52734 -3.4961,3.125 -9.47266,3.125 -6.83594,0 -9.96094,-3.88671 -1.25,-1.54297 -2.01171,-4.19922 -0.74219,-2.67578 -0.74219,-5.58594 0,-2.94922 0.78125,-5.56641 0.80078,-2.63672 2.16797,-4.21875 1.69922,-1.99218 4.17968,-2.96875 2.48047,-0.97656 5.97657,-1.01562 z m -0.0391,3.39844 q -5.52734,0 -7.40234,3.84765 -1.13281,2.32422 -1.13281,6.44531 0,4.96094 1.66015,7.44141 1.95313,2.91016 6.81641,2.91016 5.52734,0 7.32422,-3.88672 0.97656,-2.12891 0.97656,-6.25 0,-5.03906 -1.44531,-7.34375 -1.97266,-3.125 -6.79688,-3.16406 z" />
      <path
         id="path4154"
         style="font-style:normal;font-variant:normal;font-weight:normal;font-stretch:normal;font-family:HandelGotDLig;-inkscape-font-specification:HandelGotDLig;fill:#1c3984;fill-opacity:1"
         d="m 389.82068,539.51117 0,-3.39844 11.52344,0 c 1.77083,0 3.04036,-0.22135 3.80859,-0.66406 1.17187,-0.67709 1.75781,-1.82943 1.75781,-3.45703 0,-2.07031 -0.76172,-3.35287 -2.28515,-3.84766 -0.67709,-0.22135 -2.03777,-0.33203 -4.08204,-0.33203 l -2.22656,0 c -3.07291,0 -5.27343,-0.42318 -6.60156,-1.26953 -1.90104,-1.19792 -2.85156,-3.09245 -2.85156,-5.68359 0,-1.70573 0.4362,-3.21615 1.30859,-4.53125 0.84635,-1.28907 1.9401,-2.18751 3.28125,-2.69532 1.35417,-0.52083 3.26823,-0.78125 5.74219,-0.78125 l 12.24632,0 0,3.39844 -12.24632,0 c -1.15885,0 -2.05078,0.0586 -2.67578,0.17578 -0.61198,0.10417 -1.14584,0.29948 -1.60157,0.58594 -1.01562,0.65104 -1.52343,1.73177 -1.52343,3.24219 0,1.32812 0.44271,2.27864 1.32812,2.85156 0.89844,0.57291 2.38933,0.85937 4.47266,0.85937 l 1.60156,0 c 2.27865,0 3.97787,0.10417 5.09766,0.3125 1.11979,0.20833 2.04426,0.58594 2.77343,1.13282 0.8724,0.66406 1.54948,1.5625 2.03125,2.69531 0.49479,1.13281 0.74242,2.38281 0.74242,3.75 0,3.15104 -1.2307,5.36458 -3.69163,6.64062 -0.76823,0.39063 -1.64063,0.65756 -2.61719,0.80079 -0.96354,0.14323 -2.40885,0.21484 -4.33594,0.21484 z" />
    </g>
    <g
       transform="matrix(1.042357,0,0,1.1207395,-318.86945,432.65035)"
       id="text4142"
       style="font-style:normal;font-weight:normal;font-size:66.93643951px;line-height:125%;font-family:sans-serif;letter-spacing:0px;word-spacing:0px;fill:#1c3984;fill-opacity:1;stroke:none;stroke-width:1px;stroke-linecap:butt;stroke-linejoin:miter;stroke-opacity:1;filter:url(#filter4404)">
      <path
         id="path4147"
         style="font-style:normal;font-variant:normal;font-weight:normal;font-stretch:normal;font-family:HandelGotDLig;-inkscape-font-specification:HandelGotDLig;fill:#1c3984;fill-opacity:1"
         d="m 411.442,542.80081 0,5.68698 -73.84217,0 c -3.96563,0 -7.11417,-0.32684 -9.44562,-0.98051 -4.6411,-1.30735 -8.062,-4.37963 -10.26271,-9.21684 -1.59061,-3.46448 -2.38592,-7.39743 -2.38592,-11.79885 0,-5.20762 1.07857,-9.79425 3.2357,-13.75988 1.78671,-3.29017 4.04189,-5.58894 6.76554,-6.89629 2.72365,-1.30735 6.62392,-1.96103 11.70081,-1.96103 l 74.23437,0 0,5.68699 -73.84217,0 c -3.0287,0 -5.31657,0.23968 -6.8636,0.71904 -1.54703,0.45757 -2.84349,1.31825 -3.88937,2.58202 -1.17661,1.39451 -2.10265,3.32286 -2.77812,5.78504 -0.65368,2.44039 -0.98052,5.12046 -0.98052,8.04021 0,5.51267 1.28556,9.71799 3.85669,12.61595 1.19841,1.35093 2.59292,2.27698 4.18353,2.77813 1.59061,0.47936 3.94385,0.71904 7.0597,0.71904 z" />
    </g>
  </g>
</svg>
